<?xml version="1.0" encoding="UTF-8"?>
<svg width="1216px" height="609px" viewBox="0 0 1216 609" version="1.1" xmlns="http://www.w3.org/2000/svg" xmlns:xlink="http://www.w3.org/1999/xlink">
    <!-- Generator: Sketch 60 (88103) - https://sketch.com -->
    <title>Combined Shape</title>
    <desc>Created with Sketch.</desc>
    <defs>
        <linearGradient x1="50%" y1="92.7214681%" x2="50%" y2="-28.8746582%" id="linearGradient-1">
            <stop stop-color="#57A2FF" offset="0%"></stop>
            <stop stop-color="#2C69FF" offset="100%"></stop>
        </linearGradient>
    </defs>
    <g id="Page-1" stroke="none" stroke-width="1" fill="none" fill-rule="evenodd">
        <g id="Desktop-HD" transform="translate(-112.000000, -37.000000)" fill="url(#linearGradient-1)">
            <path d="M1023.94273,37.1635636 L1328,341.163564 L1023.94273,645.163564 L720,341.276564 L416.057274,645.163564 L112,341.163564 L416.057274,37.1635636 L720,341.048564 L1023.94273,37.1635636 Z M628.213886,466.295196 L642.083627,480.235301 L519.23735,603.704804 L505.36761,589.764699 L628.213886,466.295196 Z M1237.67299,466.295196 L1251.54273,480.235301 L1128.69645,603.704804 L1114.82671,589.764699 L1237.67299,466.295196 Z M813.458986,466.295196 L936.305263,589.764699 L922.435522,603.704804 L799.589245,480.235301 L813.458986,466.295196 Z M203.999883,466.295196 L326.84616,589.764699 L312.976419,603.704804 L190.130143,480.235301 L203.999883,466.295196 Z M922.242191,84.4848531 L936.107995,98.3480453 L813.296588,221.136319 L799.430784,207.273127 L922.242191,84.4848531 Z M312.956082,84.4848531 L326.821886,98.3480453 L204.010479,221.136319 L190.144675,207.273127 L312.956082,84.4848531 Z M519.158466,84.4848531 L641.969874,207.273127 L628.10407,221.136319 L505.292662,98.3480453 L519.158466,84.4848531 Z M1128.44458,84.4848531 L1251.25598,207.273127 L1237.39018,221.136319 L1114.57877,98.3480453 L1128.44458,84.4848531 Z" id="Combined-Shape"></path>
        </g>
    </g>
</svg>