<?xml version="1.0" encoding="UTF-8"?>
<svg width="1440px" height="402px" viewBox="0 0 1440 402" version="1.1" xmlns="http://www.w3.org/2000/svg" xmlns:xlink="http://www.w3.org/1999/xlink">
    <!-- Generator: Sketch 60 (88103) - https://sketch.com -->
    <title>Scene/Home</title>
    <desc>Created with Sketch.</desc>
    <g id="Page-1" stroke="none" stroke-width="1" fill="none" fill-rule="evenodd">
        <g id="Desktop-HD" transform="translate(0.000000, -498.000000)">
            <g id="Scene/Home" transform="translate(0.000000, 498.000000)">
                <g id="Plant-Right" opacity="0.7" transform="translate(1182.000000, 0.000000)">
                    <path d="M79.9047528,113.040378 C66.2530447,113.763024 50.2943362,123.453253 50.3969417,138.364313 C50.4717916,149.198479 51.9215094,159.856965 51.4184788,170.735674 C51.0157194,179.430065 49.1251777,187.934396 46.1884145,196.124248 C43.3645394,203.999655 36.5431303,211.167853 35.436189,219.380461 C34.7305556,224.613392 36.1801359,231.717944 38.4174204,236.528898 C41.1381257,242.378219 39.9806746,242.014971 36.3655703,247.542924 C29.2817053,258.37603 23.0341453,269.378157 19.1082064,281.839931 C13.4530146,299.789359 10.6714461,320.367962 15.4148106,338.86673 C16.0178728,341.21586 17.3353725,349.734582 20.6839214,349.987756 C24.4238591,350.27121 22.1932685,345.554422 21.8310908,343.993101 C19.5216852,334.030746 17.4849615,325.324509 17.9135797,314.914948 C19.5678962,274.751412 45.2035015,245.709474 60.1509621,210.198324 C60.9846805,208.360426 62.6955789,204.012856 63.9005736,201.136619 C65.8029769,196.595678 67.3104972,188.177093 70.1621387,184.658557 C75.5325909,178.03009 71.2830113,190.667575 70.3556501,193.092328 C69.1832784,196.159421 67.8821244,199.424932 66.6353083,202.135537 C60.9464558,214.690583 54.5660296,228.413437 48.6881887,241.356913 C80.3924105,245.15732 98.2859955,205.641673 104.022858,180.295993 C108.749645,159.413931 111.985935,111.412785 79.9047528,113.040378" id="Leaf-Me-Alone!" fill="#69A1AC" transform="translate(60.000000, 231.500000) scale(-1, 1) rotate(6.000000) translate(-60.000000, -231.500000) "></path>
                    <path d="M210.80537,78.1211996 C187.982635,79.932006 173.33094,94.991753 166.510526,116.055531 C162.834567,127.406956 162.413232,139.068178 160.370472,150.73361 C157.297501,168.284374 150.685653,181.584667 137.763871,194.088576 C133.761608,197.961058 130.812263,201.937087 128.715679,206.190925 C124.553629,210.438027 120.930652,215.244115 118.268925,221.120186 C114.86881,228.624383 113.90672,237.627904 117.832452,245.109372 C118.887892,247.120537 121.521026,251.158021 124.250033,252.992399 C114.032868,274.752382 108.415067,298.584143 109.048331,322.385598 C109.430981,336.75335 110.132365,351.126994 110.950647,365.477066 C111.170985,369.330186 112.42574,375.692843 114.310394,369.230849 C116.035261,363.320262 113.872239,354.041458 113.672084,347.866532 C112.69822,317.785763 111.865642,290.435094 124.248351,262.330974 C125.546836,259.385362 126.923534,256.463322 128.357419,253.564853 C128.441517,253.516026 128.519729,253.457097 128.598782,253.399851 C128.653446,253.441944 128.703065,253.487403 128.757729,253.528654 C128.849397,253.365336 128.974704,253.17087 129.121036,252.953674 C129.532279,252.529385 129.891381,251.99313 130.232822,251.394579 C131.331152,249.872525 132.574133,248.084448 132.580861,247.105384 C132.580861,247.097807 132.576656,247.086022 132.576656,247.078445 C140.242263,234.565276 149.022178,222.741577 157.990476,211.149386 C157.923197,211.23357 167.718185,197.897078 166.203566,205.272473 C165.473588,208.826738 158.268843,215.595164 155.359024,219.35989 C148.922101,227.735396 141.3633,238.347681 135.081959,248.609759 C134.236766,249.095503 133.042563,251.480447 132.178869,253.256738 C131.702028,254.156669 131.257146,255.064177 130.819832,255.854668 C153.076582,263.208176 170.390004,248.395931 182.195796,231.167594 C182.210092,231.147389 182.222707,231.126343 182.236163,231.106139 C185.828864,226.345511 189.509028,221.618557 194.10671,217.855515 C201.777363,211.576201 209.992135,210.468334 219.036121,207.377925 C243.699779,198.951066 254.18606,166.987092 257.516373,143.269822 C261.273908,116.512653 242.894113,75.4828606 210.80537,78.1211996" id="Leaf-Me-Alone!" fill="#89C5CC"></path>
                    <path d="M187.087285,8.28187838 C160.498481,29.1635113 144.586107,61.0733802 131.288496,91.3053591 C116.436639,125.071454 104.873047,159.852852 99.4843227,196.372108 C95.9443747,220.365462 91.8946121,244.44009 89.9250364,268.625714 C89.2249833,277.215152 88.8748455,285.868946 89.0407006,294.486685 C89.0545865,295.194866 89.4310473,314.437622 92.9380414,310.458848 C94.9325477,308.196212 92.5847722,290.502543 92.6250129,287.616161 C92.8548439,271.35938 94.6480975,255.202131 97.0075499,239.126854 C100.892071,212.659438 103.8149,186.195152 110.209077,160.179766 C111.163144,156.295431 112.0616,152.201098 113.539379,148.477679 C115.109085,144.518959 113.591965,146.130097 117.057176,144.962594 C120.424285,143.827288 124.27953,144.598829 127.821221,143.078763 C141.869801,137.048323 151.32577,117.815648 158.339102,105.310098 C166.360518,91.0095004 172.210631,75.380055 177.309925,59.8610252 C181.055021,48.4585852 184.191433,37.0431561 186.706808,25.3142977 C187.499429,21.6177491 188.064185,17.7150456 189.314089,14.1464607 C189.650899,13.1838012 190.889167,11.5711488 190.976475,10.6889811 C191.161137,8.82194319 190.19407,7.57272465 190.321563,6 C189.227765,6.73737876 188.148642,7.49851591 187.087285,8.28187838" id="Leaf-Me-Alone!" fill="#89C5CC" transform="translate(140.000000, 158.500000) rotate(-8.000000) translate(-140.000000, -158.500000) "></path>
                    <path d="M38,328 C38,368.316787 70.6832133,401 111,401 C151.316787,401 184,368.316787 184,328" id="Base" fill="#89C5CC"></path>
                    <path d="M161.027565,264.084806 C179.094613,262.752829 199.271153,277.328505 207.986064,292.49664 C215.01153,304.726145 213.827993,320.785081 209.488635,333.777767 C206.582823,342.476182 200.240879,354.878099 189.6648,354.998958 C176.432916,355.150242 175.794849,338.796344 175.538949,329.235863 C175.198872,316.525461 173.592762,305.452985 163.577306,296.789222 C161.24306,294.770973 158.691635,292.995286 156.33382,291.004928 C152.641788,287.889659 148.561698,284.700014 148.086094,279.546212 C147.429508,272.435859 151.443098,271.156282 157.571231,272.477271 C158.615876,272.702085 169.138923,277.424009 167.580795,273.69177 C167.105191,272.551646 165.367764,271.648167 163.174937,270.971192 C157.500522,270.354223 150.733481,269.63837 148.787294,270.066022 C127.791706,274.672159 119.617215,303.755053 117.446273,322.232845 C117.21196,324.227477 117.022484,326.228615 116.857255,328.232828 L112.999987,328.232604 C113.26763,323.393002 113.621136,318.561868 114.430188,313.776147 C117.524558,295.473303 127.199937,268.591213 148.420279,265.620466 C149.203131,265.50975 152.082849,265.491157 155.57117,265.695686 C157.224419,264.771923 159.076327,264.213271 161.027565,264.084806 Z" id="Leaf-Me-Alone!" fill="#69A1AC"></path>
                </g>
                <g id="Plant-Left" opacity="0.5" transform="translate(0.000000, 14.000000)" fill="#69A1AC">
                    <path d="M130.779625,81.1163061 C133.858075,76.7416774 139.570798,65.6315566 143.903659,64.0683704 C146.694422,63.061534 145.880736,73.4764852 145.9152,75.462388 C146.049414,83.1455327 145.298891,90.7799604 144.372055,98.3985983 C142.702269,112.13878 137.242213,124.375457 129.753342,136.069766 C125.899728,142.087199 121.379745,148.177597 115.119356,151.932187 C112.237693,153.661252 108.770328,153.950755 105.924505,155.440484 C102.610129,157.174725 104.415132,155.772774 102.921455,159.214824 C100.847169,163.99365 100.183694,170.158845 99.2239544,175.258023 C94.8173007,198.666019 84.1488748,322.406791 85.9983708,346.217197 C86.1626356,348.327647 83.2098842,348.832328 83.0624812,346.25591 C82.2790085,332.595021 89.0585761,237.99357 92.4789828,207.056176 C95.8993896,176.118782 99.360685,148.787141 102.83132,138.083771 C107.041716,125.098309 114.645934,109.482287 120.975915,97.3727815 C123.916143,91.7469785 127.12105,86.3149812 130.779625,81.1163061 Z" id="Leaf"></path>
                    <path d="M152.808678,233.661133 C160.846397,227.806409 169.546623,238.856019 162.273316,244.711642 C158.252459,247.948276 154.048889,246.796917 151.682393,244.099659 C150.146159,245.95757 148.708297,247.900197 147.326698,249.541041 C143.117319,254.541006 139.13882,259.660309 135.336528,264.898978 C127.437853,275.782184 120.668831,287.28006 113.591338,298.567688 C106.606777,309.707963 99.6780651,320.905297 93.3473531,332.32782 C87.9843414,342.005466 80.8361281,353.390441 79,364 C81.7858933,341.498961 92.357096,319.87148 104.945555,300.03509 C117.43158,280.361656 131.760745,258.876081 151.093746,243.350237 C149.126119,240.47939 149.071498,236.381474 152.808678,233.661133 Z" id="Leaf"></path>
                    <path d="M1.4052683,178.022484 C5.89993427,178.897013 13.2441678,189.01282 16.9491129,192.867021 C21.352191,197.447199 25.3468757,202.329016 29.1123361,207.443946 C37.2186013,218.453621 44.4682308,230.159191 50.6328819,242.366051 C60.6828772,262.265675 68.7342304,282.693328 74.5774418,304.362904 C78.1542835,317.627635 80.4701404,331.376012 81.8426418,345.02838 C82.1018445,347.603135 84.8151293,367.454008 80.9054521,367.989043 C77.3891096,368.47081 78.4751766,352.915869 78.3055384,350.800014 C76.3879642,326.92921 70.6434553,303.703119 62.652896,281.203691 C60.9124377,276.302403 59.2954904,270.299202 56.5120868,265.888517 C54.5076463,262.71157 56.4977124,263.819474 52.9751717,262.617153 C49.9505093,261.584151 46.5043368,261.836572 43.407014,260.572092 C36.6783863,257.826791 31.2906857,252.497345 26.5679973,247.136549 C17.3901585,236.718312 10.117188,225.44741 6.32609582,212.097977 C4.22305996,204.696153 2.29047735,197.251274 1.21801267,189.62057 C0.940584729,187.648257 -1.48971212,177.459207 1.4052683,178.022484 Z" id="Leaf"></path>
                    <path d="M19.3470407,10.0340643 C36.3083062,39.2776166 50.2463794,71.4008921 59.2462938,103.936912 C64.6991677,123.650134 68.5125261,143.878796 72.3014013,163.961335 C78.1677912,195.056641 83.7167231,226.149548 85.2951315,257.7972 C86.8831116,289.628258 90.0232352,326.341644 79.5391045,357 C84.7759803,325.873438 79.7901191,292.741637 78.9073254,261.421897 C78.4854595,246.47036 77.2629705,231.665 75.6592935,216.800833 C74.1030846,202.381791 71.5606797,188.031411 69.1931278,173.725703 C68.0398494,166.758564 66.8286472,159.801909 65.5954753,152.849059 C65.2273311,150.774667 65.0718192,144.619224 63.7482283,143.202116 C62.4160653,141.775677 55.6191934,141.194166 53.4852904,140.147531 C49.1883428,138.039478 45.1464837,135.045143 41.5693333,131.881244 C34.7118892,125.81613 28.7462581,117.891321 24.0377046,110.079261 C13.1433333,92.0033846 8.7877689,69.9442331 9.00791674,49.010068 C9.05021531,44.9455991 15.6251419,1.17777176 12.9845456,0.575052575 C13.1435319,0.389941573 13.2939208,0.198808896 13.4357249,0 C15.4348825,3.32769687 17.3966354,6.67794511 19.3470407,10.0340643 Z" id="Leaf"></path>
                    <path d="M200.952214,115.83903 C201.213165,115.46438 202.911549,112.858797 202.056296,113.025318 C203.797622,112.686276 199.661213,115.898998 204,113.927686 C201.939914,115.864314 203.128856,118.380025 203.156352,120.986514 C203.201213,125.218294 202.489886,129.415373 201.689166,133.556355 C200.423904,140.101985 198.539004,146.46625 195.803106,152.554472 C189.840132,165.822092 179.714696,178.594601 167.693921,186.88942 C161.759598,190.984906 155.943696,192.379268 149.175596,194.264674 C144.900578,195.455809 144.561562,197.656993 142.292372,201.786248 C137.568089,210.386603 132.92794,218.956023 128.761542,227.846555 C123.786586,238.462786 118.957103,249.090719 114.401499,259.893835 C99.0544872,296.283557 86.5634428,333.983854 80.003528,373 C79.8429137,350.007904 85.1864535,326.328012 91.926812,304.41272 C96.8367578,288.445736 103.228585,273.054046 110.046093,257.818172 C111.698113,254.127103 114.2016,249.379136 114.903159,245.304035 C115.394391,242.448818 113.89255,239.702936 113.204924,236.695185 C110.524177,224.982447 110.716047,211.860405 113.070141,200.085039 C115.665711,187.100464 123.171978,181.073882 135.869798,179.234701 C140.513645,178.561947 146.416095,178.808516 150.674274,176.837616 C155.313496,174.691371 157.227245,167.63669 159.865277,163.108139 C166.95094,150.943495 175.369734,139.276858 185.036834,129.027136 C187.713563,126.188858 190.592135,123.570354 193.645978,121.143322 C195.57173,119.611999 199.639826,117.725412 200.952214,115.83903 Z" id="Leaf"></path>
                    <path d="M60.7900066,348 L102.209993,348 C104.971417,348 107.209993,350.238576 107.209993,353 C107.209993,353.243729 107.192172,353.487131 107.156673,353.728261 L104.626691,370.913044 C103.181741,380.727799 94.7605228,388 84.8399736,388 L78.1600264,388 C68.2394772,388 59.8182594,380.727799 58.3733093,370.913044 L55.8433273,353.728261 C55.4411198,350.996286 57.32977,348.455528 60.0617455,348.053321 C60.3028751,348.017821 60.5462778,348 60.7900066,348 Z" id="Base"></path>
                </g>
                <g id="Maceta" transform="translate(1131.000000, 315.000000)" fill="#69A1AC">
                    <path d="M15.4177215,48.4556962 C15.4177215,69.7431274 17.0976047,87 39.6455696,87 C62.1935345,87 63.8734177,69.7431274 63.8734177,48.4556962" id="Base"></path>
                    <path d="M46.353417,35.1741665 C45.5269187,36.603205 44.7899627,38.0608242 44.1390143,39.5403256 C44.1160396,36.4933476 44.2845204,33.4240409 44.7446025,30.3127562 C45.5310424,24.9833358 46.7322042,19.6816031 47.8609075,14.3883552 C48.6720893,10.5844334 48.6208382,3.75184321 51.6994412,0.720495335 C52.5436123,0.0653705071 52.7468496,1.35061199 52.7468496,1.90838357 C52.7574533,2.02627925 52.7444932,-0.368253357 51.9250641,0.0488472497 C47.0544384,2.56440155 45.4762567,10.4741295 43.916926,14.4343524 C41.6418466,20.2148131 39.7060851,26.1238872 38.9090415,32.1379063 C38.7075715,33.6571528 38.5980001,35.1759528 38.5726691,36.6920733 C38.4071338,36.2865836 38.2516131,35.877968 38.0795978,35.473818 C35.2684432,28.8805917 31.4746806,22.4472391 26.743081,16.51405 C25.578443,15.0541979 10.9341658,0.649489986 9.78778975,2.85422841 C9.90089571,3.17442235 10.1377113,3.44013419 10.4988257,3.65136394 C10.5200331,3.67547897 10.5206222,3.66208173 10.5082512,3.62635577 C11.3683278,5.01564911 13.8136552,7.16143971 14.5753532,8.37880186 C16.4922637,11.4423031 17.9820814,14.6933656 19.4960519,17.8823543 C22.69483,24.6216105 25.6620943,31.428746 28.5386382,38.2501718 C29.2084376,39.839084 29.9065135,41.4190647 30.6187276,42.994133 C23.2768544,32.4045113 13.4825846,22.7906549 -1.42108547e-14,17.2870705 C4.60494447,19.6298004 7.62404905,24.037491 10.733874,27.4122547 C14.4846328,31.4827815 18.4350943,35.4438975 22.1929222,39.5099586 C26.6252623,44.3066155 31.8405077,49.35782 36.1037779,54.6658048 C40.2333239,63.3356026 44.2462293,72.0147785 46.7233678,81.1284714 C45.7083596,77.9796744 46.6438402,73.6282523 46.4700576,70.3236008 C46.3322097,67.6932768 46.0247028,65.0843884 45.6035009,62.4804124 C46.1242596,63.6549034 46.5731489,64.8302875 46.7763862,65.923502 C46.5908217,64.089867 46.3769808,62.2678429 46.1472343,60.4551969 C46.7369169,58.7582137 47.3159959,57.1746605 47.7071541,55.8702163 C49.7118395,49.1787436 52.0988467,42.6024871 55.349465,36.192803 C58.3573768,30.263633 61.8076979,24.4099342 65.5672931,18.7348651 C67.3210246,16.088911 69.0989091,13.4527816 70.8656007,10.8121864 C72.0219914,9.08349646 73.1230073,6.31562756 74.733,4.65928264 C64.3260729,14.1739995 52.9559778,23.7574888 46.353417,35.1741665" id="Fill-27"></path>
                </g>
            </g>
        </g>
    </g>
</svg>