<?xml version="1.0" encoding="UTF-8"?>
<svg width="1157px" height="677px" viewBox="0 0 1157 677" version="1.1" xmlns="http://www.w3.org/2000/svg" xmlns:xlink="http://www.w3.org/1999/xlink">
    <!-- Generator: Sketch 60 (88103) - https://sketch.com -->
    <title>Group 3</title>
    <desc>Created with Sketch.</desc>
    <g id="Page-1" stroke="none" stroke-width="1" fill="none" fill-rule="evenodd">
        <g id="Desktop-HD" transform="translate(-283.000000, -51.000000)" fill="#20262F">
            <g id="Group-3" transform="translate(283.000000, 50.000000)">
                <path d="M134.88362,133.012426 L544.799126,132.473113 C545.501596,132.472189 546.07181,133.040904 546.072734,133.743375 C546.072736,133.744486 546.072736,133.745598 546.072734,133.746709 L545.536179,544.660908 C545.535263,545.362077 544.967086,545.93026 544.265917,545.931183 L134.350412,546.470496 C133.647941,546.47142 133.077727,545.902704 133.076803,545.200234 C133.076802,545.199123 133.076802,545.198011 133.076803,545.1969 L133.613358,134.282701 C133.614274,133.581532 134.182452,133.013349 134.88362,133.012426 Z" id="Rectangle" transform="translate(339.574769, 339.471804) rotate(-135.000000) translate(-339.574769, -339.471804) "></path>
                <path d="M967.696357,52.1659735 L1252.95318,337.350752 C1254.12544,338.521641 1254.12568,340.421136 1252.95425,341.592857 C1252.95407,341.593035 1252.95389,341.593214 1252.95318,341.592857 L967.696357,626.777635 C966.52431,627.948315 964.625228,627.948315 963.45318,626.777635 L678.196357,341.592857 C677.070991,340.468803 677.025755,338.673267 678.060338,337.494759 L678.195285,337.350752 C678.195464,337.350573 678.195643,337.350395 678.196357,337.350752 L963.45318,52.1659735 C964.625228,50.9952938 966.52431,50.9952938 967.696357,52.1659735 Z M967.548041,100.621189 C966.766676,99.8407358 965.500622,99.8407358 964.719257,100.621189 L964.719257,100.621189 L727.229508,338.050957 L727.229508,338.050957 L727.111977,338.178186 C726.450025,338.964056 726.489136,340.139518 727.229508,340.879026 L727.229508,340.879026 L964.719257,578.308794 C965.500622,579.089247 966.766676,579.089247 967.548041,578.308794 L967.548041,578.308794 L1205.03779,340.879026 L1205.03779,340.879026 L1205.15532,340.751797 C1205.81727,339.965927 1205.77816,338.790465 1205.03779,338.050957 L1205.03779,338.050957 Z" id="Combined-Shape"></path>
                <path d="M24.9946366,316.542182 L1.97643702,293.562702 C1.47929702,293.066399 1.4786191,292.261053 1.97492285,291.763913 C1.97542715,291.763408 1.97593187,291.762903 1.97643702,291.762399 L292.357626,1.86966876 C292.854174,1.37395574 293.658353,1.37395574 294.154901,1.86966876 L317.1731,24.8491488 C317.67024,25.3454525 317.670918,26.1507978 317.174615,26.6479378 C317.17411,26.6484429 317.173606,26.6489477 317.1731,26.649452 L26.7919115,316.542182 C26.2953632,317.037895 25.4911849,317.037895 24.9946366,316.542182 Z" id="Rectangle"></path>
                <path d="M316.1731,654.09446 L293.154901,677.07394 C292.658353,677.569653 291.854174,677.569653 291.357626,677.07394 L0.97643702,387.18121 C0.479297022,386.684906 0.478619105,385.879561 0.974922849,385.382421 C0.975427148,385.381916 0.975931872,385.381411 0.97643702,385.380907 L23.9946366,362.401427 C24.4911849,361.905713 25.2953632,361.905713 25.7919115,362.401427 L316.1731,652.294157 C316.67024,652.790461 316.670918,653.595806 316.174615,654.092946 C316.17411,654.093451 316.173606,654.093956 316.1731,654.09446 Z" id="Rectangle"></path>
                <path d="M387.074347,677.078173 L363.980702,654.095874 C363.482781,653.600354 363.480835,652.795011 363.976355,652.29709 C363.977801,652.295637 363.97925,652.294188 363.980702,652.292743 L655.280753,362.397194 C655.776973,361.903366 656.57897,361.903366 657.07519,362.397194 L680.168835,385.379492 C680.666756,385.875013 680.668702,386.680356 680.173182,387.178277 C680.171737,387.179729 680.170288,387.181178 680.168835,387.182624 L388.868785,677.078173 C388.372564,677.572001 387.570567,677.572001 387.074347,677.078173 Z" id="Rectangle"></path>
                <path d="M678.1731,293.562702 L655.154901,316.542182 C654.658353,317.037895 653.854174,317.037895 653.357626,316.542182 L362.976437,26.649452 C362.479297,26.1531482 362.478619,25.347803 362.974923,24.850663 C362.975427,24.8501578 362.975932,24.8496531 362.976437,24.8491488 L385.994637,1.86966876 C386.491185,1.37395574 387.295363,1.37395574 387.791911,1.86966876 L678.1731,291.762399 C678.67024,292.258703 678.670918,293.064048 678.174615,293.561188 C678.17411,293.561693 678.173606,293.562198 678.1731,293.562702 Z" id="Rectangle"></path>
                <path d="M653.994637,316.542182 L630.976437,293.562702 C630.479297,293.066399 630.478619,292.261053 630.974923,291.763913 C630.975427,291.763408 630.975932,291.762903 630.976437,291.762399 L921.357626,1.86966876 C921.854174,1.37395574 922.658353,1.37395574 923.154901,1.86966876 L946.1731,24.8491488 C946.67024,25.3454525 946.670918,26.1507978 946.174615,26.6479378 C946.17411,26.6484429 946.173606,26.6489477 946.1731,26.649452 L655.791911,316.542182 C655.295363,317.037895 654.491185,317.037895 653.994637,316.542182 Z" id="Rectangle"></path>
                <path d="M947.1731,654.09446 L924.154901,677.07394 C923.658353,677.569653 922.854174,677.569653 922.357626,677.07394 L631.976437,387.18121 C631.479297,386.684906 631.478619,385.879561 631.974923,385.382421 C631.975427,385.381916 631.975932,385.381411 631.976437,385.380907 L654.994637,362.401427 C655.491185,361.905713 656.295363,361.905713 656.791911,362.401427 L947.1731,652.294157 C947.67024,652.790461 947.670918,653.595806 947.174615,654.092946 C947.17411,654.093451 947.173606,654.093956 947.1731,654.09446 Z" id="Rectangle"></path>
            </g>
        </g>
    </g>
</svg>