<?xml version="1.0" encoding="UTF-8"?>
<svg width="88px" height="48px" viewBox="0 0 88 48" version="1.1" xmlns="http://www.w3.org/2000/svg" xmlns:xlink="http://www.w3.org/1999/xlink">
    <!-- Generator: Sketch 60 (88103) - https://sketch.com -->
    <title>Group 3</title>
    <desc>Created with Sketch.</desc>
    <g id="Page-1" stroke="none" stroke-width="1" fill="none" fill-rule="evenodd">
        <g id="Desktop-HD" transform="translate(-48.000000, -50.000000)" fill="#5ABBA1">
            <g id="Group-3" transform="translate(48.000000, 49.000000)">
                <path d="M10.8302929,10.4048007 L37.5294133,10.3501018 C38.2318829,10.3486627 38.8025137,10.9169601 38.8039528,11.6194297 C38.8039564,11.6211669 38.8039564,11.6229041 38.8039528,11.6246414 L38.749254,38.3237618 C38.747819,39.0241969 38.1803613,39.5916546 37.4799261,39.5930896 L10.7808057,39.6477885 C10.0783361,39.6492277 9.50770532,39.0809302 9.50626616,38.3784606 C9.5062626,38.3767234 9.5062626,38.3749862 9.50626616,38.373249 L9.56096502,11.6741286 C9.56240001,10.9736934 10.1298577,10.4062357 10.8302929,10.4048007 Z" id="Rectangle" transform="translate(24.155109, 24.998945) rotate(-135.000000) translate(-24.155109, -24.998945) "></path>
                <path d="M70.6213203,6.62132034 L86.8786797,22.8786797 C88.0502525,24.0502525 88.0502525,25.9497475 86.8786797,27.1213203 L70.6213203,43.3786797 C69.4497475,44.5502525 67.5502525,44.5502525 66.3786797,43.3786797 L50.1213203,27.1213203 C48.9497475,25.9497475 48.9497475,24.0502525 50.1213203,22.8786797 L66.3786797,6.62132034 C67.5502525,5.44974747 69.4497475,5.44974747 70.6213203,6.62132034 Z M69.9537889,9.39635649 C69.1727403,8.61530791 67.9064103,8.61530791 67.1253617,9.39635649 L67.1253617,9.39635649 L52.9364143,23.5853039 C52.1553658,24.3663525 52.1553658,25.6326824 52.9364143,26.413731 L52.9364143,26.413731 L67.1253617,40.6026784 C67.9064103,41.383727 69.1727403,41.383727 69.9537889,40.6026784 L69.9537889,40.6026784 L84.1427362,26.413731 C84.9237848,25.6326824 84.9237848,24.3663525 84.1427362,23.5853039 L84.1427362,23.5853039 Z" id="Combined-Shape"></path>
                <path d="M11.4248842,-2.41023697 C12.1080066,-2.41163649 12.6629213,-1.85899089 12.6643208,-1.17586847 C12.6643243,-1.1741791 12.6643243,-1.17248972 12.6643208,-1.17080035 L12.6094992,25.5882466 C12.6080922,26.2749955 12.0517225,26.8313652 11.3649736,26.8327722 C10.6818512,26.8341717 10.1269365,26.2815261 10.125537,25.5984037 C10.1255335,25.5967143 10.1255335,25.5950249 10.125537,25.5933356 L10.1803586,-1.16571142 C10.1817656,-1.85246028 10.7381353,-2.40883002 11.4248842,-2.41023697 Z" id="Rectangle" transform="translate(11.394929, 12.211268) rotate(-135.000000) translate(-11.394929, -12.211268) "></path>
                <path d="M11.2849725,23.1651182 C11.9717214,23.1665251 12.5280911,23.7228948 12.529498,24.4096437 L12.5843197,51.1686907 C12.5857192,51.8518131 12.0330736,52.4067278 11.3499512,52.4081273 C11.3482618,52.4081308 11.3465724,52.4081308 11.3448831,52.4081273 C10.6581342,52.4067204 10.1017645,51.8503506 10.1003575,51.1636018 L10.0455359,24.4045548 C10.0441364,23.7214324 10.596782,23.1665177 11.2799044,23.1651182 C11.2815937,23.1651147 11.2832831,23.1651147 11.2849725,23.1651182 Z" id="Rectangle" transform="translate(11.314928, 37.786623) rotate(-225.000000) translate(-11.314928, -37.786623) "></path>
                <path d="M37.1052476,23.1651182 C37.78837,23.1637186 38.3432847,23.7163642 38.3446842,24.3994867 C38.3446877,24.401176 38.3446877,24.4028654 38.3446842,24.4045548 L38.2898626,51.1636018 C38.2884557,51.8503506 37.7320859,52.4067204 37.0453371,52.4081273 C36.3622146,52.4095268 35.8073,51.8568812 35.8059004,51.1737588 C35.805897,51.1720694 35.805897,51.1703801 35.8059004,51.1686907 L35.8607221,24.4096437 C35.862129,23.7228948 36.4184988,23.1665251 37.1052476,23.1651182 Z" id="Rectangle" transform="translate(37.075292, 37.786623) rotate(-135.000000) translate(-37.075292, -37.786623) "></path>
                <path d="M36.9653359,-2.41023697 C37.6520848,-2.40883002 38.2084545,-1.85246028 38.2098615,-1.16571142 L38.2646831,25.5933356 C38.2660826,26.276458 37.713437,26.8313727 37.0303146,26.8327722 C37.0286252,26.8327756 37.0269359,26.8327756 37.0252465,26.8327722 C36.3384976,26.8313652 35.7821279,26.2749955 35.7807209,25.5882466 L35.7258993,-1.17080035 C35.7244998,-1.85392277 36.2771454,-2.40883745 36.9602678,-2.41023697 C36.9619572,-2.41024043 36.9636466,-2.41024043 36.9653359,-2.41023697 Z" id="Rectangle" transform="translate(36.995291, 12.211268) rotate(-225.000000) translate(-36.995291, -12.211268) "></path>
                <path d="M56.0015265,-2.41023697 C56.6846489,-2.41163649 57.2395636,-1.85899089 57.2409631,-1.17586847 C57.2409666,-1.1741791 57.2409666,-1.17248972 57.2409631,-1.17080035 L57.1861415,25.5882466 C57.1847346,26.2749955 56.6283648,26.8313652 55.941616,26.8327722 C55.2584935,26.8341717 54.7035789,26.2815261 54.7021793,25.5984037 C54.7021759,25.5967143 54.7021759,25.5950249 54.7021793,25.5933356 L54.757001,-1.16571142 C54.7584079,-1.85246028 55.3147777,-2.40883002 56.0015265,-2.41023697 Z" id="Rectangle" transform="translate(55.971571, 12.211268) rotate(-135.000000) translate(-55.971571, -12.211268) "></path>
                <path d="M55.9747535,23.1651182 C56.6615024,23.1665251 57.2178721,23.7228948 57.2192791,24.4096437 L57.2741007,51.1686907 C57.2755002,51.8518131 56.7228546,52.4067278 56.0397322,52.4081273 C56.0380428,52.4081308 56.0363534,52.4081308 56.0346641,52.4081273 C55.3479152,52.4067204 54.7915455,51.8503506 54.7901385,51.1636018 L54.7353169,24.4045548 C54.7339174,23.7214324 55.286563,23.1665177 55.9696854,23.1651182 C55.9713748,23.1651147 55.9730641,23.1651147 55.9747535,23.1651182 Z" id="Rectangle" transform="translate(56.004709, 37.786623) rotate(-225.000000) translate(-56.004709, -37.786623) "></path>
            </g>
        </g>
    </g>
</svg>