<?xml version="1.0" encoding="UTF-8"?>
<svg width="139px" height="72px" viewBox="0 0 139 72" version="1.1" xmlns="http://www.w3.org/2000/svg" xmlns:xlink="http://www.w3.org/1999/xlink">
    <!-- Generator: Sketch 60 (88103) - https://sketch.com -->
    <title>Group 3</title>
    <desc>Created with Sketch.</desc>
    <g id="Page-1" stroke="none" stroke-width="1" fill="none" fill-rule="evenodd">
        <g id="Desktop-HD" transform="translate(-256.000000, -76.000000)" fill="#5ABBA1">
            <g id="Group-3" transform="translate(256.000000, 76.000000)">
                <polygon id="Rectangle" transform="translate(36.102798, 35.998418) rotate(-135.000000) translate(-36.102798, -35.998418) " points="14.2154741 14.1110938 58.0012165 14.0999993 57.990122 57.8857417 14.2043796 57.8968362"></polygon>
                <path d="M103,5 L134,36 L103,67 L72,36 L103,5 Z M103.059846,10.2656796 L77.3262548,35.9992703 L103.059846,61.732861 L128.793436,35.9992703 L103.059846,10.2656796 Z" id="Combined-Shape"></path>
                <polygon id="Rectangle" transform="translate(17.031130, 16.816901) rotate(-135.000000) translate(-17.031130, -16.816901) " points="15.1770514 -5.07549861 18.8963037 -5.07644101 18.8852092 38.7093014 15.1659569 38.7102438"></polygon>
                <polygon id="Rectangle" transform="translate(16.911559, 55.179934) rotate(-225.000000) translate(-16.911559, -55.179934) " points="15.0463853 33.2865917 18.7656376 33.2875341 18.7767321 77.0732765 15.0574799 77.0723341"></polygon>
                <polygon id="Rectangle" transform="translate(55.413609, 55.179934) rotate(-135.000000) translate(-55.413609, -55.179934) " points="53.5595301 33.2875341 57.2787824 33.2865917 57.2676878 77.0723341 53.5484356 77.0732765"></polygon>
                <polygon id="Rectangle" transform="translate(55.294037, 16.816901) rotate(-225.000000) translate(-55.294037, -16.816901) " points="53.428864 -5.07644101 57.1481162 -5.07549861 57.1592108 38.7102438 53.4399585 38.7093014"></polygon>
                <polygon id="Rectangle" transform="translate(83.656434, 16.816901) rotate(-135.000000) translate(-83.656434, -16.816901) " points="81.8023556 -5.07549861 85.5216078 -5.07644101 85.5105133 38.7093014 81.791261 38.7102438"></polygon>
                <polygon id="Rectangle" transform="translate(83.705963, 55.179934) rotate(-225.000000) translate(-83.705963, -55.179934) " points="81.8407892 33.2865917 85.5600415 33.2875341 85.571136 77.0732765 81.8518838 77.0723341"></polygon>
                <polygon id="Rectangle" transform="translate(122.038913, 55.179934) rotate(-135.000000) translate(-122.038913, -55.179934) " points="120.184834 33.2875341 123.904087 33.2865917 123.892992 77.0723341 120.17374 77.0732765"></polygon>
                <polygon id="Rectangle" transform="translate(121.919342, 16.816901) rotate(-225.000000) translate(-121.919342, -16.816901) " points="120.054168 -5.07644101 123.77342 -5.07549861 123.784515 38.7102438 120.065263 38.7093014"></polygon>
            </g>
        </g>
    </g>
</svg>